# xmcd
#
# Track frame offsets:
#	150
#	17577
#	33732
#	52461
#	67011
#	82978
#	99190
#	113017
#	129677
#	145689
#	163896
#	180972
#	194973
#
# Disc length: 2887 seconds
# Revision: 0
# Processed by: cddbd v1.5.2PL0 Copyright (c) Steve Scherf et al.
# Submitted via: dBpowerAMP V12.0
#
DISCID=b90b450d
DTITLE=The Dave Martin Band - Thumbs Up
DYEAR=2009
DGENRE=Rock
TTITLE0=Cheapskate
TTITLE1=Fa Fa Fine
TTITLE2=Box O' Wine
TTITLE3=That's Edutainment
TTITLE4=ESLout
TTITLE5=Do You Like Kimchi?
TTITLE6=Cougars
TTITLE7=Email Breakup
TTITLE8=Landshark
TTITLE9=Thumbs Up
TTITLE10=Cockblocker
TTITLE11=Shit My Pants
TTITLE12=The Fan Death Suicide Pact Cult
EXTD=
EXTT0=
EXTT1=
EXTT2=
EXTT3=
EXTT4=
EXTT5=
EXTT6=
EXTT7=
EXTT8=
EXTT9=
EXTT10=
EXTT11=
EXTT12=
PLAYORDER=
